<svg width="24" height="24" viewBox="0 0 24 24" fill="none" xmlns="http://www.w3.org/2000/svg">
<path d="M7 21H17M11.38 12C10.7744 12.0056 10.189 11.7821 9.74128 11.3742C9.29357 10.9663 9.01664 10.4042 8.96603 9.80063C8.91541 9.19708 9.09487 8.59672 9.46839 8.11995C9.84191 7.64318 10.3819 7.32527 10.98 7.22997C10.8842 6.8062 10.9053 6.36438 11.0409 5.95164C11.1766 5.5389 11.4217 5.17072 11.7502 4.88638C12.0787 4.60203 12.4782 4.41219 12.9061 4.33709C13.334 4.262 13.7743 4.30446 14.18 4.45997C14.3576 4.18033 14.5912 3.9405 14.8661 3.75557C15.141 3.57064 15.4511 3.44462 15.7771 3.38544C16.1031 3.32626 16.4377 3.3352 16.7601 3.41171C17.0824 3.48821 17.3854 3.63062 17.65 3.82997C18.1116 3.46719 18.6901 3.28617 19.2761 3.32116C19.8621 3.35615 20.415 3.60472 20.8301 4.01984C21.2452 4.43496 21.4938 4.98783 21.5288 5.57386C21.5638 6.15988 21.3828 6.7384 21.02 7.19997C21.2458 7.4999 21.3981 7.84862 21.4646 8.2181C21.5312 8.58758 21.5101 8.96752 21.4031 9.32738C21.2961 9.68724 21.1062 10.017 20.8486 10.2901C20.591 10.5632 20.273 10.7721 19.92 10.9C20.0112 11.2599 20.0215 11.6356 19.95 12M13 12L17 7.99997M10.9 7.24997C10.3515 6.66524 9.63955 6.25931 8.85698 6.08509C8.0744 5.91088 7.25749 5.97645 6.51273 6.27328C5.76797 6.5701 5.1299 7.08441 4.6817 7.74915C4.23349 8.4139 3.99594 9.19825 4 9.99997C4 10.73 4.2 11.41 4.54 12M12 21C14.3869 21 16.6761 20.0518 18.364 18.3639C20.0518 16.6761 21 14.3869 21 12H3C3 14.3869 3.94821 16.6761 5.63604 18.3639C7.32387 20.0518 9.61305 21 12 21Z" stroke="#1D4ED8" stroke-width="2" stroke-linecap="round" stroke-linejoin="round"/>
</svg>
